HIERARCHY
ROOT Hips
{
    OFFSET 0.000000 0.000000 0.000000
    CHANNELS 6 Xposition Yposition Zposition Zrotation Yrotation Xrotation
    JOINT Chest
    {
        OFFSET 0.000000 1.634758 -0.000000
        CHANNELS 3 Zrotation Yrotation Xrotation
        JOINT Chest2
        {
            OFFSET 0.000000 2.197341 0.000000
            CHANNELS 3 Zrotation Yrotation Xrotation
            JOINT Neck
            {
                OFFSET 0.000000 0.961544 0.000000
                CHANNELS 3 Zrotation Yrotation Xrotation
                JOINT Head
                {
                    OFFSET 0.000000 0.632542 -0.032565
                    CHANNELS 3 Zrotation Yrotation Xrotation
                    End Site
                    {
                        OFFSET -0.000001 0.439502 2.922845
                    }
                }
            }
            JOINT LeftCollar
            {
                OFFSET 0.167536 0.778237 -0.168280
                CHANNELS 3 Zrotation Yrotation Xrotation
                JOINT LeftShoulder
                {
                    OFFSET 0.831514 -0.002900 0.006458
                    CHANNELS 3 Zrotation Yrotation Xrotation
                    JOINT LeftElbow
                    {
                        OFFSET 2.272872 -0.026639 0.059314
                        CHANNELS 3 Zrotation Yrotation Xrotation
                        JOINT LeftWrist
                        {
                            OFFSET 2.081982 -0.024402 0.054333
                            CHANNELS 3 Zrotation Yrotation Xrotation
                            JOINT LeftHandThumb1
                            {
                                OFFSET 0.218903 -0.128645 0.283837
                                CHANNELS 3 Zrotation Yrotation Xrotation
                                JOINT LeftHandThumb2
                                {
                                    OFFSET 0.137157 -0.025101 0.077902
                                    CHANNELS 3 Zrotation Yrotation Xrotation
                                    JOINT LeftHandThumb3
                                    {
                                        OFFSET 0.155401 -0.093404 0.025799
                                        CHANNELS 3 Zrotation Yrotation Xrotation
                                        End Site
                                        {
                                            OFFSET 0.249748 -0.090007 0.036895
                                        }
                                    }
                                }
                            }
                            JOINT LeftHandFore1
                            {
                                OFFSET 0.767340 -0.016076 0.196678
                                CHANNELS 3 Zrotation Yrotation Xrotation
                                JOINT LeftHandFore2
                                {
                                    OFFSET 0.209399 -0.053353 0.017341
                                    CHANNELS 3 Zrotation Yrotation Xrotation
                                    JOINT LeftHandFore3
                                    {
                                        OFFSET 0.112814 -0.062491 0.011433
                                        CHANNELS 3 Zrotation Yrotation Xrotation
                                        End Site
                                        {
                                            OFFSET 0.141700 -0.130710 0.014251
                                        }
                                    }
                                }
                            }
                            JOINT LeftHandMiddle1
                            {
                                OFFSET 0.709887 -0.008320 0.018526
                                CHANNELS 3 Zrotation Yrotation Xrotation
                                JOINT LeftHandMiddle2
                                {
                                    OFFSET 0.234003 -0.070939 0.016552
                                    CHANNELS 3 Zrotation Yrotation Xrotation
                                    JOINT LeftHandMiddle3
                                    {
                                        OFFSET 0.117699 -0.086125 0.010613
                                        CHANNELS 3 Zrotation Yrotation Xrotation
                                        End Site
                                        {
                                            OFFSET 0.132888 -0.194118 0.017001
                                        }
                                    }
                                }
                            }
                            JOINT LeftHandRing1
                            {
                                OFFSET 0.743817 -0.005823 -0.153668
                                CHANNELS 3 Zrotation Yrotation Xrotation
                                JOINT LeftHandRing2
                                {
                                    OFFSET 0.336057 -0.108615 0.001341
                                    CHANNELS 3 Zrotation Yrotation Xrotation
                                    JOINT LeftHandRing3
                                    {
                                        OFFSET 0.089074 -0.103022 0.007610
                                        CHANNELS 3 Zrotation Yrotation Xrotation
                                        End Site
                                        {
                                            OFFSET 0.049871 -0.109052 0.006342
                                        }
                                    }
                                }
                            }
                            JOINT LeftHandLittle1
                            {
                                OFFSET 0.689408 -0.053302 -0.308304
                                CHANNELS 3 Zrotation Yrotation Xrotation
                                JOINT LeftHandLittle2
                                {
                                    OFFSET 0.193659 -0.023239 -0.003174
                                    CHANNELS 3 Zrotation Yrotation Xrotation
                                    JOINT LeftHandLittle3
                                    {
                                        OFFSET 0.097116 -0.070941 0.005664
                                        CHANNELS 3 Zrotation Yrotation Xrotation
                                        End Site
                                        {
                                            OFFSET 0.065846 -0.175011 0.036388
                                        }
                                    }
                                }
                            }
                        }
                    }
                }
            }
            JOINT RightCollar
            {
                OFFSET -0.167536 0.778237 -0.168280
                CHANNELS 3 Zrotation Yrotation Xrotation
                JOINT RightShoulder
                {
                    OFFSET -0.831514 -0.002900 0.006457
                    CHANNELS 3 Zrotation Yrotation Xrotation
                    JOINT RightElbow
                    {
                        OFFSET -2.272872 -0.026639 0.059313
                        CHANNELS 3 Zrotation Yrotation Xrotation
                        JOINT RightWrist
                        {
                            OFFSET -2.081982 -0.024402 0.054331
                            CHANNELS 3 Zrotation Yrotation Xrotation
                            JOINT RightHandThumb1
                            {
                                OFFSET -0.218911 -0.128571 0.283837
                                CHANNELS 3 Zrotation Yrotation Xrotation
                                JOINT RightHandThumb2
                                {
                                    OFFSET -0.137157 -0.025101 0.077902
                                    CHANNELS 3 Zrotation Yrotation Xrotation
                                    JOINT RightHandThumb3
                                    {
                                        OFFSET -0.170785 -0.066053 0.002963
                                        CHANNELS 3 Zrotation Yrotation Xrotation
                                        End Site
                                        {
                                            OFFSET -0.235727 -0.117612 0.049362
                                        }
                                    }
                                }
                            }
                            JOINT RightHandFore1
                            {
                                OFFSET -0.767344 -0.015991 0.196679
                                CHANNELS 3 Zrotation Yrotation Xrotation
                                JOINT RightHandFore2
                                {
                                    OFFSET -0.209415 -0.053305 0.017344
                                    CHANNELS 3 Zrotation Yrotation Xrotation
                                    JOINT RightHandFore3
                                    {
                                        OFFSET -0.113047 -0.062519 0.008600
                                        CHANNELS 3 Zrotation Yrotation Xrotation
                                        End Site
                                        {
                                            OFFSET -0.141808 -0.130723 0.012995
                                        }
                                    }
                                }
                            }
                            JOINT RightHandMiddle1
                            {
                                OFFSET -0.709887 -0.008302 0.018525
                                CHANNELS 3 Zrotation Yrotation Xrotation
                                JOINT RightHandMiddle2
                                {
                                    OFFSET -0.233992 -0.070960 0.016563
                                    CHANNELS 3 Zrotation Yrotation Xrotation
                                    JOINT RightHandMiddle3
                                    {
                                        OFFSET -0.117945 -0.086170 0.006927
                                        CHANNELS 3 Zrotation Yrotation Xrotation
                                        End Site
                                        {
                                            OFFSET -0.133739 -0.194225 0.004547
                                        }
                                    }
                                }
                            }
                            JOINT RightHandRing1
                            {
                                OFFSET -0.743819 -0.005785 -0.153669
                                CHANNELS 3 Zrotation Yrotation Xrotation
                                JOINT RightHandRing2
                                {
                                    OFFSET -0.336063 -0.108594 0.001425
                                    CHANNELS 3 Zrotation Yrotation Xrotation
                                    JOINT RightHandRing3
                                    {
                                        OFFSET -0.089692 -0.101371 -0.016863
                                        CHANNELS 3 Zrotation Yrotation Xrotation
                                        End Site
                                        {
                                            OFFSET -0.050499 -0.107372 -0.018473
                                        }
                                    }
                                }
                            }
                            JOINT RightHandLittle1
                            {
                                OFFSET -0.689403 -0.053298 -0.308303
                                CHANNELS 3 Zrotation Yrotation Xrotation
                                JOINT RightHandLittle2
                                {
                                    OFFSET -0.193662 -0.023241 -0.003188
                                    CHANNELS 3 Zrotation Yrotation Xrotation
                                    JOINT RightHandLittle3
                                    {
                                        OFFSET -0.096879 -0.070403 -0.012385
                                        CHANNELS 3 Zrotation Yrotation Xrotation
                                        End Site
                                        {
                                            OFFSET -0.064715 -0.172484 -0.048475
                                        }
                                    }
                                }
                            }
                        }
                    }
                }
            }
        }
    }
    JOINT LeftHip
    {
        OFFSET 0.685143 0.673822 -0.044491
        CHANNELS 3 Zrotation Yrotation Xrotation
        JOINT LeftKnee
        {
            OFFSET 0.085364 -3.750208 0.017676
            CHANNELS 3 Zrotation Yrotation Xrotation
            JOINT LeftAnkle
            {
                OFFSET 0.094583 -4.155206 0.019585
                CHANNELS 3 Zrotation Yrotation Xrotation
                JOINT LeftToe
                {
                    OFFSET -0.000000 -0.395925 0.621478
                    CHANNELS 3 Zrotation Yrotation Xrotation
                    End Site
                    {
                        OFFSET -0.000000 -0.077878 0.321152
                    }
                }
            }
        }
    }
    JOINT RightHip
    {
        OFFSET -0.685143 0.673822 -0.044492
        CHANNELS 3 Zrotation Yrotation Xrotation
        JOINT RightKnee
        {
            OFFSET -0.085364 -3.750208 0.017677
            CHANNELS 3 Zrotation Yrotation Xrotation
            JOINT RightAnkle
            {
                OFFSET -0.094583 -4.155206 0.019585
                CHANNELS 3 Zrotation Yrotation Xrotation
                JOINT RightToe
                {
                    OFFSET -0.000000 -0.395925 0.621478
                    CHANNELS 3 Zrotation Yrotation Xrotation
                    End Site
                    {
                        OFFSET -0.000000 -0.077878 0.321152
                    }
                }
            }
        }
    }
}
MOTION
Frames: 5
Frame Time: 0.033333
-0.022012 8.237779 -0.491578 180.000000 -0.000011 180.000000 1.486770 -0.021174 -3.271813 -0.000226 0.003289 -3.645248 -4.120322 -1.030846 4.873670 0.100585 -1.952916 11.432279 -14.171591 1.615691 0.006464 -56.569931 9.654796 -0.702439 0.008787 -9.534744 -0.112726 7.778448 -11.308304 26.150326 0.000001 0.000001 0.000002 0.000002 -0.000003 -0.000005 0.000000 -0.000000 0.000002 0.000002 -0.000000 -0.000003 0.000001 -0.000002 0.000002 0.000002 0.000001 0.000003 -0.000000 -0.000001 0.000002 -0.000001 -0.000000 0.000000 -0.000002 -0.000001 0.000000 -0.000001 -0.000003 0.000002 0.000002 0.000002 -0.000002 0.000001 0.000001 -0.000002 -0.000001 -0.000000 0.000002 -0.000001 0.000003 -0.000002 -0.000001 -0.000003 -0.000002 13.696163 -1.779073 0.005409 53.564274 -6.832934 -0.739105 -0.000527 2.605750 -0.030553 -12.529453 10.106569 18.270882 -0.000001 0.000004 -0.000006 0.000002 -0.000003 0.000005 0.000004 0.000003 -0.000002 0.000003 -0.000001 -0.000003 -0.000002 -0.000001 0.000001 -0.000004 -0.000000 0.000002 0.000002 0.000001 -0.000004 -0.000008 -0.000002 0.000001 0.000009 0.000003 0.000000 -0.000001 -0.000003 -0.000004 -0.000003 -0.000000 0.000003 -0.000001 -0.000002 -0.000002 0.000001 -0.000002 -0.000003 -0.000003 0.000001 0.000002 0.000000 0.000002 0.000001 -0.682221 3.023593 -4.278766 0.042289 0.329391 14.629379 -10.147824 3.630395 -15.062063 -0.143315 -1.267989 -7.181889 1.037826 4.624794 -4.378793 -0.045568 -0.341757 15.191560 14.805062 -12.241450 -17.128904 0.182685 1.819743 -7.896921
-0.022013 8.237779 -0.491578 180.000000 -0.000011 180.000000 1.475405 -0.020469 -3.276642 0.002074 0.003008 -3.628744 -4.115057 -1.009937 4.878031 0.098594 -1.914273 11.441543 -14.167688 1.621638 0.006379 -56.544327 9.643793 -0.706954 0.008680 -9.474315 -0.112000 7.764948 -11.298772 26.095613 -0.000003 -0.000002 -0.000007 -0.190734 0.010152 0.162840 0.011399 0.163842 0.040821 -0.106586 -0.023068 -0.002418 -0.173017 -0.007821 0.001988 -0.202317 -0.008381 0.007547 -0.135976 -0.032968 0.004815 -0.261155 -0.010968 0.013396 -0.244080 -0.008139 0.013324 -0.132583 -0.012753 0.054317 -0.394146 -0.017590 0.002771 -0.174611 -0.013042 0.005961 -0.033106 -0.002010 0.022982 -0.299854 -0.067481 0.022833 -0.551749 -0.102204 -0.011347 13.641413 -1.765373 0.005465 53.308453 -7.719623 -0.706529 -0.001824 4.548691 -0.053405 -12.959578 9.627693 17.631834 0.000009 -0.000012 -0.000001 -0.265112 -0.274538 -0.097719 0.189786 -0.010587 0.134318 -0.445083 -0.067038 -0.125912 -0.285555 0.001646 -0.041406 0.181626 -0.000418 0.021597 -0.362492 0.053243 -0.025205 -0.104471 0.002591 -0.008912 0.047841 -0.000774 0.003920 -0.424302 0.135836 0.115253 -0.020701 0.004030 -0.000680 0.039923 -0.004894 -0.000593 -0.516683 0.148173 0.173246 -0.241568 0.069990 0.024562 0.321907 -0.079643 -0.001390 -0.682374 3.020357 -4.278702 0.042289 0.329391 14.629379 -10.148791 3.633309 -15.062627 -0.143321 -1.268068 -7.181948 1.037156 4.613420 -4.379078 -0.045567 -0.341756 15.191512 14.803484 -12.230336 -17.125706 0.182694 1.819846 -7.896974
-0.022014 8.237779 -0.491578 180.000000 -0.000011 180.000000 1.448701 -0.024608 -3.290136 -0.011407 0.004664 -3.582524 -4.100170 -0.956691 4.890300 0.093171 -1.809075 11.467012 -14.153437 1.636184 0.007050 -56.456875 9.637115 -0.720131 0.008422 -9.345320 -0.110448 7.725454 -11.270927 25.941402 0.000014 0.000008 0.000005 -0.375103 0.019198 0.321314 0.022217 0.317238 0.079069 -0.206325 -0.044644 -0.004588 -0.335178 -0.015149 0.003842 -0.391382 -0.016163 0.014651 -0.263249 -0.063753 0.009397 -0.505614 -0.021160 0.025963 -0.472498 -0.015703 0.025825 -0.256871 -0.024638 0.105132 -0.763048 -0.034035 0.005481 -0.337986 -0.025234 0.011581 -0.064258 -0.003856 0.044405 -0.580585 -0.130545 0.044541 -1.068057 -0.197932 -0.021090 13.499137 -1.730230 0.004759 52.628372 -8.975511 -0.631400 -0.005203 7.426945 -0.087495 -14.065022 8.430325 15.849012 0.000002 -0.000006 -0.000001 -0.547376 -0.468501 -0.215468 0.305095 0.006160 0.243020 -1.025565 -0.155220 -0.263015 -0.739230 0.003821 -0.107198 0.237206 -0.000556 0.028197 -0.867644 0.089902 -0.059804 -0.410929 0.010111 -0.035060 -0.070869 0.001140 -0.005806 -0.995579 0.274895 0.206522 -0.310110 0.056847 -0.014126 -0.042587 0.012735 -0.002094 -1.128307 0.305876 0.345258 -0.716081 0.207786 0.071933 0.316857 -0.078410 -0.001358 -0.682826 3.010774 -4.278537 0.042289 0.329391 14.629425 -10.151645 3.641934 -15.064323 -0.143345 -1.268304 -7.182142 1.035195 4.580137 -4.379987 -0.045568 -0.341756 15.191512 14.798903 -12.197770 -17.116419 0.182723 1.820114 -7.896970
-0.022017 8.237779 -0.491578 180.000000 -0.000011 180.000000 1.424754 -0.049654 -3.310803 -0.092703 0.014777 -3.511523 -4.076902 -0.886207 4.909448 0.084846 -1.647483 11.505088 -14.122229 1.651502 0.010827 -56.278339 9.703389 -0.741315 0.008300 -9.280338 -0.109666 7.661475 -11.225875 25.702536 0.000006 0.000006 0.000009 -0.553325 0.027162 0.475574 0.032433 0.460235 0.114794 -0.299673 -0.064856 -0.006528 -0.486472 -0.021970 0.005611 -0.567909 -0.023372 0.021303 -0.382242 -0.092477 0.013761 -0.733762 -0.030639 0.037739 -0.685550 -0.024050 0.036494 -0.373084 -0.035718 0.152576 -1.107280 -0.049361 0.008101 -0.490402 -0.036584 0.016850 -0.093547 -0.005602 0.064342 -0.842664 -0.189328 0.065078 -1.549690 -0.287325 -0.029389 13.305732 -1.685362 0.001103 51.688396 -9.930575 -0.533088 -0.009358 9.827582 -0.116256 -15.569318 6.876032 13.125138 0.000008 -0.000009 -0.000003 -0.845679 -0.588928 -0.351043 0.351873 0.047933 0.327745 -1.727426 -0.263528 -0.409491 -1.344190 0.005918 -0.194965 0.178356 -0.000412 0.021202 -1.501712 0.111324 -0.100875 -0.900381 0.021823 -0.076935 -0.341056 0.005433 -0.027953 -1.699313 0.417087 0.274936 -0.844421 0.154191 -0.039626 -0.235313 0.053899 -0.005720 -1.824325 0.473075 0.515477 -1.401928 0.407670 0.138402 0.012464 -0.003073 -0.000036 -0.683567 2.995030 -4.278355 0.042290 0.329397 14.629667 -10.156329 3.656078 -15.067185 -0.143381 -1.268672 -7.182347 1.032019 4.526219 -4.381481 -0.045568 -0.341758 15.191560 14.791540 -12.144980 -17.101404 0.182767 1.820565 -7.896997
-0.022020 8.237779 -0.491578 180.000000 -0.000011 180.000000 1.407936 -0.098908 -3.337160 -0.251742 0.034960 -3.420817 -4.046680 -0.811710 4.933611 0.074715 -1.450848 11.551647 -14.072929 1.665488 0.018134 -56.005657 9.851574 -0.769468 0.008343 -9.299715 -0.109900 7.574502 -11.164708 25.393826 0.000009 0.000015 0.000009 -0.725519 0.034022 0.625702 0.042048 0.593175 0.148039 -0.386493 -0.083634 -0.008256 -0.627251 -0.028329 0.007272 -0.731903 -0.030026 0.027515 -0.493080 -0.119163 0.017859 -0.945970 -0.039409 0.048735 -0.883804 -0.031877 0.046382 -0.481290 -0.045977 0.196669 -1.427534 -0.063604 0.010623 -0.632175 -0.047129 0.021788 -0.120953 -0.007259 0.082799 -1.086607 -0.243952 0.084424 -1.997587 -0.370502 -0.036426 13.091657 -1.636759 -0.005775 50.637783 -10.545919 -0.424833 -0.013356 11.643848 -0.138285 -17.197929 5.322448 9.623338 0.000014 -0.000010 0.000001 -1.158941 -0.642634 -0.502295 0.335746 0.112431 0.389904 -2.536340 -0.390838 -0.563492 -2.083448 0.007222 -0.302230 0.016817 -0.000039 0.001999 -2.250687 0.118553 -0.147512 -1.553770 0.036902 -0.132973 -0.747599 0.011692 -0.061317 -2.521191 0.562083 0.321661 -1.599767 0.291364 -0.077229 -0.527187 0.116191 -0.011475 -2.594176 0.649345 0.683325 -2.277608 0.664107 0.219835 -0.563702 0.139486 0.001362 -0.684588 2.973321 -4.278002 0.042291 0.329401 14.629814 -10.162771 3.675591 -15.071047 -0.143431 -1.269199 -7.182717 1.027704 4.452928 -4.383422 -0.045567 -0.341756 15.191463 14.781602 -12.073207 -17.080935 0.182827 1.821196 -7.897069
